<svg version="1.1" xmlns="http://www.w3.org/2000/svg" xmlns:xlink="http://www.w3.org/1999/xlink" width="758.75826" height="568.06757" viewBox="0,0,758.75826,568.06757"><g transform="translate(139.37913,104.03379)"><g data-paper-data="{&quot;isPaintingLayer&quot;:true}" fill-rule="nonzero" stroke="#ffffff" stroke-width="0.5" stroke-linecap="butt" stroke-linejoin="miter" stroke-miterlimit="10" stroke-dasharray="" stroke-dashoffset="0" style="mix-blend-mode: normal"><path d="M-139.12913,463.78379v-567.56757h758.25826v567.56757z" fill="#520000"/><path d="M100.26652,67.38739c0,19.0729 -15.79776,34.53453 -35.28529,34.53453c-19.48752,0 -35.28529,-15.46164 -35.28529,-34.53453c0,-19.0729 15.79776,-34.53453 35.28529,-34.53453c19.48752,0 35.28529,15.46164 35.28529,34.53453z" fill="#540000"/><path d="M100.76201,177.49249c0,19.07289 -15.79776,34.53453 -35.28528,34.53453c-19.48753,0 -35.28528,-15.46164 -35.28528,-34.53453c0,-19.07289 15.79776,-34.53454 35.28529,-34.53454c19.48753,0 35.28529,15.46164 35.28529,34.53454z" fill="#540000"/><path d="M99.756,299.60961c0,19.0729 -15.79776,34.53453 -35.28528,34.53453c-19.48753,0 -35.28528,-15.46164 -35.28528,-34.53453c0,-19.0729 15.79776,-34.53454 35.28529,-34.53454c19.48753,0 35.28529,15.46164 35.28529,34.53454z" fill="#540000"/><path d="M208.87012,67.88288c0,19.0729 -15.79776,34.53453 -35.28528,34.53453c-19.48753,0 -35.28529,-15.46164 -35.28529,-34.53453c0,-19.0729 15.79776,-34.53454 35.28529,-34.53454c19.48753,0 35.28528,15.46164 35.28528,34.53454z" fill="#540000"/><path d="M209.36561,177.98799c0,19.07289 -15.79776,34.53453 -35.28528,34.53453c-19.48753,0 -35.28529,-15.46164 -35.28529,-34.53453c0,-19.07289 15.79776,-34.53454 35.28529,-34.53454c19.48753,0 35.28528,15.46164 35.28528,34.53454z" fill="#540000"/><path d="M208.35961,300.1051c0,19.0729 -15.79776,34.53453 -35.28528,34.53453c-19.48753,0 -35.28529,-15.46164 -35.28529,-34.53453c0,-19.0729 15.79776,-34.53454 35.28529,-34.53454c19.48752,0 35.28528,15.46164 35.28528,34.53454z" fill="#540000"/><path d="M315.97222,66.87687c0,19.0729 -15.79776,34.53453 -35.28528,34.53453c-19.48753,0 -35.28529,-15.46164 -35.28529,-34.53453c0,-19.0729 15.79776,-34.53453 35.28529,-34.53453c19.48752,0 35.28528,15.46164 35.28528,34.53453z" fill="#540000"/><path d="M316.46772,176.98198c0,19.07289 -15.79776,34.53454 -35.28528,34.53454c-19.48753,0 -35.28529,-15.46164 -35.28529,-34.53454c0,-19.07289 15.79776,-34.53453 35.28529,-34.53453c19.48753,0 35.28528,15.46164 35.28528,34.53453z" fill="#540000"/><path d="M315.46171,299.09909c0,19.0729 -15.79776,34.53454 -35.28528,34.53454c-19.48753,0 -35.28528,-15.46164 -35.28528,-34.53454c0,-19.0729 15.79776,-34.53453 35.28528,-34.53453c19.48753,0 35.28528,15.46164 35.28528,34.53453z" fill="#540000"/><path d="M432.08333,65.87087c0,19.07289 -15.79776,34.53453 -35.28528,34.53453c-19.48753,0 -35.28529,-15.46164 -35.28529,-34.53453c0,-19.0729 15.79776,-34.53454 35.28529,-34.53454c19.48753,0 35.28528,15.46164 35.28528,34.53454z" fill="#540000"/><path d="M432.57883,175.97598c0,19.07289 -15.79776,34.53454 -35.28528,34.53454c-19.48753,0 -35.28529,-15.46164 -35.28529,-34.53454c0,-19.07289 15.79776,-34.53454 35.28529,-34.53454c19.48753,0 35.28528,15.46164 35.28528,34.53454z" fill="#540000"/><path d="M431.57282,299.59459c0,19.0729 -15.79776,34.53454 -35.28528,34.53454c-19.48753,0 -35.28528,-15.46164 -35.28528,-34.53454c0,-19.0729 15.79776,-34.53454 35.28528,-34.53454c19.48753,0 35.28528,15.46164 35.28528,34.53454z" fill="#540000"/></g></g></svg>