<svg version="1.1" xmlns="http://www.w3.org/2000/svg" xmlns:xlink="http://www.w3.org/1999/xlink" width="758.75826" height="568.06757" viewBox="0,0,758.75826,568.06757"><g transform="translate(140.22372,98.02778)"><g data-paper-data="{&quot;isPaintingLayer&quot;:true}" fill="#001048" fill-rule="nonzero" stroke="#ffffff" stroke-width="0.5" stroke-linecap="butt" stroke-linejoin="miter" stroke-miterlimit="10" stroke-dasharray="" stroke-dashoffset="0" style="mix-blend-mode: normal"><path d="M-139.97372,469.78979v-567.56757h758.25826v567.56757z"/><path d="M100.26652,68.88889c0,19.0729 -15.79776,34.53453 -35.28529,34.53453c-19.48752,0 -35.28529,-15.46164 -35.28529,-34.53453c0,-19.0729 15.79776,-34.53453 35.28529,-34.53453c19.48752,0 35.28529,15.46164 35.28529,34.53453z"/><path d="M100.76201,175.99099c0,19.07289 -15.79776,34.53453 -35.28528,34.53453c-19.48753,0 -35.28528,-15.46164 -35.28528,-34.53453c0,-19.07289 15.79776,-34.53454 35.28529,-34.53454c19.48753,0 35.28529,15.46164 35.28529,34.53454z"/><path d="M99.756,298.10811c0,19.0729 -15.79776,34.53453 -35.28528,34.53453c-19.48753,0 -35.28528,-15.46164 -35.28528,-34.53453c0,-19.0729 15.79776,-34.53454 35.28529,-34.53454c19.48753,0 35.28529,15.46164 35.28529,34.53454z"/><path d="M208.87012,69.38438c0,19.0729 -15.79776,34.53453 -35.28528,34.53453c-19.48753,0 -35.28529,-15.46164 -35.28529,-34.53453c0,-19.0729 15.79776,-34.53454 35.28529,-34.53454c19.48753,0 35.28528,15.46164 35.28528,34.53454z"/><path d="M209.36561,176.48649c0,19.07289 -15.79776,34.53453 -35.28528,34.53453c-19.48753,0 -35.28529,-15.46164 -35.28529,-34.53453c0,-19.07289 15.79776,-34.53454 35.28529,-34.53454c19.48753,0 35.28528,15.46164 35.28528,34.53454z"/><path d="M208.35961,298.6036c0,19.0729 -15.79776,34.53453 -35.28528,34.53453c-19.48753,0 -35.28529,-15.46164 -35.28529,-34.53453c0,-19.0729 15.79776,-34.53454 35.28529,-34.53454c19.48752,0 35.28528,15.46164 35.28528,34.53454z"/><path d="M315.97222,66.87687c0,19.0729 -15.79776,34.53453 -35.28528,34.53453c-19.48753,0 -35.28529,-15.46164 -35.28529,-34.53453c0,-19.0729 15.79776,-34.53453 35.28529,-34.53453c19.48752,0 35.28528,15.46164 35.28528,34.53453z"/><path d="M316.46772,176.98198c0,19.07289 -15.79776,34.53454 -35.28528,34.53454c-19.48753,0 -35.28529,-15.46164 -35.28529,-34.53454c0,-19.07289 15.79776,-34.53453 35.28529,-34.53453c19.48753,0 35.28528,15.46164 35.28528,34.53453z"/><path d="M315.46171,297.59759c0,19.0729 -15.79776,34.53454 -35.28528,34.53454c-19.48753,0 -35.28528,-15.46164 -35.28528,-34.53454c0,-19.0729 15.79776,-34.53453 35.28528,-34.53453c19.48753,0 35.28528,15.46164 35.28528,34.53453z"/><path d="M432.08333,67.37237c0,19.07289 -15.79776,34.53453 -35.28528,34.53453c-19.48753,0 -35.28529,-15.46164 -35.28529,-34.53453c0,-19.0729 15.79776,-34.53454 35.28529,-34.53454c19.48753,0 35.28528,15.46164 35.28528,34.53454z"/><path d="M432.57883,178.97898c0,19.07289 -15.79776,34.53454 -35.28528,34.53454c-19.48753,0 -35.28529,-15.46164 -35.28529,-34.53454c0,-19.07289 15.79776,-34.53454 35.28529,-34.53454c19.48753,0 35.28528,15.46164 35.28528,34.53454z"/><path d="M431.57282,298.09309c0,19.0729 -15.79776,34.53454 -35.28528,34.53454c-19.48753,0 -35.28528,-15.46164 -35.28528,-34.53454c0,-19.0729 15.79776,-34.53454 35.28528,-34.53454c19.48753,0 35.28528,15.46164 35.28528,34.53454z"/></g></g></svg>