<svg version="1.1" xmlns="http://www.w3.org/2000/svg" xmlns:xlink="http://www.w3.org/1999/xlink" width="758.75826" height="568.06757" viewBox="0,0,758.75826,568.06757"><g transform="translate(140.22372,101.03078)"><g data-paper-data="{&quot;isPaintingLayer&quot;:true}" fill-rule="nonzero" stroke="#ffffff" stroke-width="0.5" stroke-linecap="butt" stroke-linejoin="miter" stroke-miterlimit="10" stroke-dasharray="" stroke-dashoffset="0" style="mix-blend-mode: normal"><path d="M-139.97372,466.78679v-567.56757h758.25826v567.56757z" fill="#525252"/><path d="M100.26652,65.88589c0,19.0729 -15.79776,34.53453 -35.28529,34.53453c-19.48752,0 -35.28529,-15.46164 -35.28529,-34.53453c0,-19.0729 15.79776,-34.53453 35.28529,-34.53453c19.48752,0 35.28529,15.46164 35.28529,34.53453z" fill="#555555"/><path d="M100.76201,175.99099c0,19.07289 -15.79776,34.53453 -35.28528,34.53453c-19.48753,0 -35.28528,-15.46164 -35.28528,-34.53453c0,-19.07289 15.79776,-34.53454 35.28529,-34.53454c19.48753,0 35.28529,15.46164 35.28529,34.53454z" fill="#555555"/><path d="M99.756,298.10811c0,19.0729 -15.79776,34.53453 -35.28528,34.53453c-19.48753,0 -35.28528,-15.46164 -35.28528,-34.53453c0,-19.0729 15.79776,-34.53454 35.28529,-34.53454c19.48753,0 35.28529,15.46164 35.28529,34.53454z" fill="#555555"/><path d="M208.87012,66.38138c0,19.0729 -15.79776,34.53453 -35.28528,34.53453c-19.48753,0 -35.28529,-15.46164 -35.28529,-34.53453c0,-19.0729 15.79776,-34.53454 35.28529,-34.53454c19.48753,0 35.28528,15.46164 35.28528,34.53454z" fill="#555555"/><path d="M209.36561,176.48649c0,19.07289 -15.79776,34.53453 -35.28528,34.53453c-19.48753,0 -35.28529,-15.46164 -35.28529,-34.53453c0,-19.07289 15.79776,-34.53454 35.28529,-34.53454c19.48753,0 35.28528,15.46164 35.28528,34.53454z" fill="#555555"/><path d="M208.35961,298.6036c0,19.0729 -15.79776,34.53453 -35.28528,34.53453c-19.48753,0 -35.28529,-15.46164 -35.28529,-34.53453c0,-19.0729 15.79776,-34.53454 35.28529,-34.53454c19.48752,0 35.28528,15.46164 35.28528,34.53454z" fill="#555555"/><path d="M315.97222,65.37537c0,19.0729 -15.79776,34.53453 -35.28528,34.53453c-19.48753,0 -35.28529,-15.46164 -35.28529,-34.53453c0,-19.0729 15.79776,-34.53453 35.28529,-34.53453c19.48752,0 35.28528,15.46164 35.28528,34.53453z" fill="#555555"/><path d="M316.46772,175.48048c0,19.07289 -15.79776,34.53454 -35.28528,34.53454c-19.48753,0 -35.28529,-15.46164 -35.28529,-34.53454c0,-19.07289 15.79776,-34.53453 35.28529,-34.53453c19.48753,0 35.28528,15.46164 35.28528,34.53453z" fill="#555555"/><path d="M315.46171,297.59759c0,19.0729 -15.79776,34.53454 -35.28528,34.53454c-19.48753,0 -35.28528,-15.46164 -35.28528,-34.53454c0,-19.0729 15.79776,-34.53453 35.28528,-34.53453c19.48753,0 35.28528,15.46164 35.28528,34.53453z" fill="#555555"/><path d="M432.08333,65.87087c0,19.07289 -15.79776,34.53453 -35.28528,34.53453c-19.48753,0 -35.28529,-15.46164 -35.28529,-34.53453c0,-19.0729 15.79776,-34.53454 35.28529,-34.53454c19.48753,0 35.28528,15.46164 35.28528,34.53454z" fill="#555555"/><path d="M432.57883,175.97598c0,19.07289 -15.79776,34.53454 -35.28528,34.53454c-19.48753,0 -35.28529,-15.46164 -35.28529,-34.53454c0,-19.07289 15.79776,-34.53454 35.28529,-34.53454c19.48753,0 35.28528,15.46164 35.28528,34.53454z" fill="#555555"/><path d="M431.57282,298.09309c0,19.0729 -15.79776,34.53454 -35.28528,34.53454c-19.48753,0 -35.28528,-15.46164 -35.28528,-34.53454c0,-19.0729 15.79776,-34.53454 35.28528,-34.53454c19.48753,0 35.28528,15.46164 35.28528,34.53454z" fill="#555555"/></g></g></svg>